<svg xmlns="http://www.w3.org/2000/svg" width="500" height="500" style="width:100%;height:100%;content-visibility:visible"><defs><clipPath id="a"><path d="M0 0h500v500H0z"/></clipPath></defs><g clip-path="url(#a)"><path stroke-linecap="round" stroke-linejoin="round" stroke="#121330" stroke-width="11.799" d="M98.33 367.477v42.5h-34v-208.43s0 0 0 0c8.302-11.722 25.698-11.722 34 0 0 0 0 0 0 0v121.84M402.8 367.477v42.5h34.01v-86.59" fill="none" display="block"/><path stroke-linecap="round" stroke-linejoin="round" stroke="#121330" stroke-width="11.799" d="M64.332 367.474h372.474v-44.088H64.332v44.088z" fill="none" display="block"/><path stroke-linecap="round" stroke-linejoin="round" stroke="#07A889" stroke-width="11.799" d="M210 233.214h143.736c45.878 0 83.07 37.191 83.07 83.069v6.931H210v-90zm35.965.204v90" fill="none" display="block"/><path stroke-linecap="round" stroke-linejoin="round" stroke="#121330" stroke-width="11.799" d="M182.334 273.391v-17.942c0-3.463-2.834-6.296-6.297-6.296h-29.674c-11.579 0-21.053 9.473-21.053 21.052v3.186c0 11.579 9.474 21.052 21.053 21.052h14.918c11.579 0 21.053-9.473 21.053-21.052zM212.246 155.458h34.432l-34.432 34.432h34.432M278.159 116.025h34.432l-34.432 34.432h34.432" fill="none" display="block"/></g></svg>